HIERARCHY
ROOT Hips
{
	OFFSET 0.000000 0.000000 0.000000
	CHANNELS 6 Xposition Yposition Zposition Xrotation Yrotation Zrotation
	JOINT LeftUpLeg_virtual
	{
		OFFSET 0.000000 0.000000 0.000000
		CHANNELS 3 Xrotation Yrotation Zrotation
		JOINT LeftUpLeg
		{
			OFFSET 11.394100 -6.187798 -0.413800
			CHANNELS 3 Xrotation Yrotation Zrotation
			JOINT LeftLeg
			{
				OFFSET 0.430247 -32.302673 3.732800
				CHANNELS 3 Xrotation Yrotation Zrotation
				JOINT LeftFoot
				{
					OFFSET -0.430247 -48.264931 -6.423300
					CHANNELS 3 Xrotation Yrotation Zrotation
					JOINT LeftToeBase
					{
						OFFSET 4.230900 -16.068199 23.438400
						CHANNELS 3 Xrotation Yrotation Zrotation
						JOINT LeftToe_End
						{
							OFFSET 4.510700 0.695400 19.974600
							CHANNELS 3 Xrotation Yrotation Zrotation
							End Site
							{
								OFFSET 0 0 0
							}
						}
					}
				}
			}
		}
	}
	JOINT RightUpLeg_virtual
	{
		OFFSET 0.000000 0.000000 0.000000
		CHANNELS 3 Xrotation Yrotation Zrotation
		JOINT RightUpLeg
		{
			OFFSET -11.333700 -6.187798 -0.413800
			CHANNELS 3 Xrotation Yrotation Zrotation
			JOINT RightLeg
			{
				OFFSET -0.430392 -32.302628 3.733000
				CHANNELS 3 Xrotation Yrotation Zrotation
				JOINT RightFoot
				{
					OFFSET 0.430392 -48.264973 -6.423500
					CHANNELS 3 Xrotation Yrotation Zrotation
					JOINT RightToeBase
					{
						OFFSET -4.230900 -16.068199 23.438400
						CHANNELS 3 Xrotation Yrotation Zrotation
						JOINT RightToe_End
						{
							OFFSET -4.510700 0.695400 19.974600
							CHANNELS 3 Xrotation Yrotation Zrotation
							End Site
							{
								OFFSET 0 0 0
							}
						}
					}
				}
			}
		}
	}
	JOINT Spine_virtual
	{
		OFFSET 0.000000 0.000000 0.000000
		CHANNELS 3 Xrotation Yrotation Zrotation
		JOINT Spine
		{
			OFFSET -0.002400 12.777504 0.315300
			CHANNELS 3 Xrotation Yrotation Zrotation
			JOINT Spine1
			{
				OFFSET -0.002067 5.816869 0.032633
				CHANNELS 3 Xrotation Yrotation Zrotation
				JOINT Spine1_split
				{
					OFFSET -0.002067 5.816869 0.032633
					CHANNELS 3 Xrotation Yrotation Zrotation
					JOINT Spine2
					{
						OFFSET -0.002067 5.816869 0.032633
						CHANNELS 3 Xrotation Yrotation Zrotation
						JOINT Neck_virtual
						{
							OFFSET 0.000000 0.000000 0.000000
							CHANNELS 3 Xrotation Yrotation Zrotation
							JOINT Neck
							{
								OFFSET -0.003700 21.199493 -0.826900
								CHANNELS 3 Xrotation Yrotation Zrotation
								JOINT Head
								{
									OFFSET 0.000000 20.442200 4.834800
									CHANNELS 3 Xrotation Yrotation Zrotation
									JOINT HeadTop_End
									{
										OFFSET 0.000000 34.668396 4.968400
										CHANNELS 3 Xrotation Yrotation Zrotation
										End Site
										{
											OFFSET 0 0 0
										}
									}
								}
							}
						}
						JOINT LeftShoulder_virtual
						{
							OFFSET 0.000000 0.000000 0.000000
							CHANNELS 3 Xrotation Yrotation Zrotation
							JOINT LeftShoulder
							{
								OFFSET 3.288150 8.794197 -1.372250
								CHANNELS 3 Xrotation Yrotation Zrotation
								JOINT LeftShoulder_split
								{
									OFFSET 3.288150 8.794197 -1.372250
									CHANNELS 3 Xrotation Yrotation Zrotation
									JOINT LeftArm
									{
										OFFSET 11.953299 -2.279007 -0.146200
										CHANNELS 3 Xrotation Yrotation Zrotation
										JOINT LeftForeArm
										{
											OFFSET 18.448900 0.000000 0.000000
											CHANNELS 3 Xrotation Yrotation Zrotation
											JOINT LeftHand
											{
												OFFSET 29.527798 0.000000 0.000000
												CHANNELS 3 Xrotation Yrotation Zrotation
												End Site
												{
													OFFSET 0 0 0
												}
											}
										}
									}
								}
							}
						}
						JOINT RightShoulder_virtual
						{
							OFFSET 0.000000 0.000000 0.000000
							CHANNELS 3 Xrotation Yrotation Zrotation
							JOINT RightShoulder
							{
								OFFSET -3.249400 8.794197 -1.372250
								CHANNELS 3 Xrotation Yrotation Zrotation
								JOINT RightShoulder_split
								{
									OFFSET -3.249400 8.794197 -1.372250
									CHANNELS 3 Xrotation Yrotation Zrotation
									JOINT RightArm
									{
										OFFSET -11.953299 -2.279007 -0.146200
										CHANNELS 3 Xrotation Yrotation Zrotation
										JOINT RightForeArm
										{
											OFFSET -18.448900 0.000000 0.000000
											CHANNELS 3 Xrotation Yrotation Zrotation
											JOINT RightHand
											{
												OFFSET -29.527802 0.000000 0.000000
												CHANNELS 3 Xrotation Yrotation Zrotation
												End Site
												{
													OFFSET 0 0 0
												}
											}
										}
									}
								}
							}
						}
					}
				}
			}
		}
	}
}
MOTION
Frames: 4
Frame Time: 0.03333333
-7.767976 91.397430 38.909504 0.000000 0.000000 0.000000 26.772998 7.194680 -18.135441 -88.568613 -7.202301 12.574785 28.932196 8.414041 -3.329510 29.909774 -4.196760 7.340942 -2.345535 0.074829 -0.651370 0.000000 0.000000 0.000000 26.895946 9.821692 -19.430133 9.416756 -24.336024 -12.204087 66.019249 5.478689 -1.856763 26.721257 -1.154811 12.394350 15.659156 0.374719 2.459398 0.000000 0.000000 0.000000 26.495779 8.228857 -19.914504 6.681799 12.464317 -9.135396 12.789352 11.232400 -6.953310 1.729671 0.509525 0.688008 0.000000 0.000000 0.000000 12.323193 10.825842 -7.483355 -10.598951 -6.986787 7.931877 -26.917403 -32.183168 18.869431 0.000000 0.000000 0.000000 11.602166 11.383206 -7.511250 -0.064631 6.135093 4.757320 -4.120234 -0.300774 -0.863983 32.646675 -41.572476 -12.745620 0.031576 -29.638144 -1.574989 0.000000 0.000000 0.000000 11.877840 10.911179 -7.933161 5.672664 13.977843 -5.437098 -2.254147 5.311611 -1.137460 -19.542488 56.093666 34.241466 -2.316538 39.881577 0.713842 0.000000 0.000000 0.000000 
-8.234858 91.035896 40.336983 0.000000 0.000000 0.000000 24.831197 7.783059 -17.260354 -88.473612 -7.080543 13.221867 33.382130 7.685437 -4.633284 27.147726 -4.420683 8.035828 -2.023080 0.125682 -0.697203 0.000000 0.000000 0.000000 24.808927 9.972866 -18.429732 4.348052 -24.079159 -11.926595 64.176389 5.443611 -1.897949 25.758242 -1.544580 9.680407 15.332783 0.371693 2.694072 0.000000 0.000000 0.000000 24.468186 8.361279 -18.993086 6.553775 11.340362 -9.282441 13.192989 10.407940 -7.110912 1.376271 0.729407 0.659455 0.000000 0.000000 0.000000 12.586956 10.088289 -7.664193 -10.964860 -6.700030 7.497377 -27.139723 -32.171704 19.295822 0.000000 0.000000 0.000000 11.564219 10.683294 -7.637021 0.039441 5.490874 5.663589 -4.057752 -1.205902 -1.569740 30.852320 -43.974602 -5.285847 0.468509 -27.694744 -1.159124 0.000000 0.000000 0.000000 12.068013 10.212986 -7.986665 5.519802 13.531841 -4.608853 -1.742865 4.204191 -1.051822 -18.971450 52.435533 27.832128 -2.242843 38.266347 0.904510 0.000000 0.000000 0.000000 
-8.580995 91.007133 41.916405 0.000000 0.000000 0.000000 23.003380 8.148959 -16.425635 -87.731191 -6.478831 13.883036 37.076767 6.889292 -5.555114 24.337030 -4.662014 8.642498 -1.579626 0.245292 -0.832122 0.000000 0.000000 0.000000 22.760830 10.172541 -17.609652 -0.453702 -23.991231 -11.700208 61.431063 5.425992 -1.897655 24.885521 -1.593779 6.493066 14.479393 0.472362 3.300863 0.000000 0.000000 0.000000 22.386688 8.413670 -18.180109 6.489200 10.158208 -9.453591 13.581389 9.296027 -7.243153 1.243738 0.744629 0.601660 0.000000 0.000000 0.000000 12.893941 9.058141 -7.833007 -11.320010 -6.438175 7.074359 -26.825976 -31.826168 19.898047 0.000000 0.000000 0.000000 11.661833 9.658138 -7.743689 0.162291 4.761945 6.385993 -3.923611 -1.941693 -2.162200 27.442829 -47.133605 0.532895 0.862749 -24.982853 -0.597441 0.000000 0.000000 0.000000 12.420526 9.223716 -8.039556 5.558636 13.254762 -4.832726 -1.369544 3.069933 -1.173033 -18.595754 49.586688 22.544171 -2.197905 35.522994 1.091668 0.000000 0.000000 0.000000 
-8.768674 91.235336 43.605179 0.000000 0.000000 0.000000 21.224745 8.373073 -15.654454 -86.193320 -5.433772 14.599840 40.239185 6.062190 -6.011715 21.567782 -4.851923 9.038295 -1.724132 0.403144 -0.996831 0.000000 0.000000 0.000000 20.742494 10.379032 -16.957528 -5.216411 -24.059531 -11.826671 58.108750 5.677492 -2.058040 24.908838 -0.930750 4.056393 11.258219 0.516577 4.294168 0.000000 0.000000 0.000000 20.288626 8.453939 -17.458578 6.507582 8.716109 -9.686957 13.979761 7.809701 -7.281969 1.255345 0.796318 0.496095 0.000000 0.000000 0.000000 13.215630 7.628904 -7.882302 -11.577773 -6.141534 6.691623 -25.888276 -30.865089 20.724291 0.000000 0.000000 0.000000 11.935289 8.205521 -7.779156 0.276629 4.019162 6.852266 -3.851735 -2.234091 -2.452392 22.020540 -50.610465 4.084305 1.079892 -21.514585 -0.000407 0.000000 0.000000 0.000000 12.888273 7.825001 -8.006052 5.754469 13.032008 -6.157184 -1.087173 2.241224 -1.493589 -17.888866 47.487549 17.760380 -2.171408 32.898084 1.194951 0.000000 0.000000 0.000000 
